<?xml version="1.0" encoding="utf-8"?>
<!-- Generator: Adobe Illustrator 25.2.1, SVG Export Plug-In . SVG Version: 6.00 Build 0)  -->
<svg version="1.0" id="Capa_1" xmlns="http://www.w3.org/2000/svg" xmlns:xlink="http://www.w3.org/1999/xlink" x="0px" y="0px"
	 viewBox="0 0 680.1 208.21" style="enable-background:new 0 0 680.1 208.21;" xml:space="preserve">
<style type="text/css">
	.st0{fill:#FFFFFF;}
	.st1{fill:#FFFFFF;}
</style>
<g>
	<path class="st0" d="M546.95,64.54C509.25,26.32,430.31,0,339.02,0c-89.73,0-167.53,27.55-205.96,64.71
		c47.84-26.76,121.99-46.08,205.23-46.08C423.55,18.63,499.27,36.66,546.95,64.54"/>
	<path class="st1" d="M163.28,165.9h-19.32c-11.96,0-17.48,4.6-17.48,11.96c0,7.36,5.34,11.96,14.72,11.96
		c13.98,0,22.08-8.1,22.08-21.16V165.9z M165.12,197.18h-0.92c-1.65,2.02-3.86,3.86-6.44,5.52c-4.42,2.76-10.86,5.52-20.24,5.52
		c-21.34,0-34.04-13.07-34.04-28.52c0-18.4,12.88-31.28,38.64-31.28h21.16v-1.84c0-9.72-7.96-17.92-17.67-17.45
		c-9.58,0.46-14.57,6.79-15.45,11.93h-23c2.02-15.46,14.53-30.36,39.56-30.36c23.92,0,39.56,15.82,39.56,35.88v59.79h-19.32
		L165.12,197.18z"/>
	<path class="st1" d="M315.83,165.9h-19.32c-11.96,0-17.48,4.6-17.48,11.96c0,7.36,5.34,11.96,14.72,11.96
		c13.98,0,22.08-8.1,22.08-21.16V165.9z M317.67,197.18h-0.92c-1.65,2.02-3.86,3.86-6.44,5.52c-4.42,2.76-10.86,5.52-20.24,5.52
		c-21.34,0-34.04-13.07-34.04-28.52c0-18.4,12.88-31.28,38.64-31.28h21.16v-1.84c0-9.72-7.96-17.92-17.67-17.45
		c-9.58,0.46-14.57,6.79-15.45,11.93h-23c2.02-15.46,14.53-30.36,39.56-30.36c23.92,0,39.56,15.82,39.56,35.88v59.79h-19.32
		L317.67,197.18z"/>
	<path class="st1" d="M438.17,171.42c-2.94,14.72-14.54,36.8-44.16,36.8c-27.6,0-47.84-20.24-47.84-48.76
		c0-28.52,20.24-48.76,47.84-48.76c29.62,0,41.21,22.08,44.16,35.88h-23c-2.03-5.34-7.36-14.72-21.16-14.72
		c-13.8,0-24.84,11.04-24.84,27.6c0,16.56,11.04,27.6,24.84,27.6c13.8,0,19.13-9.2,21.16-15.64H438.17z"/>
	<path class="st1" d="M513.6,159.46c0-16.56-11.04-27.6-24.84-27.6c-13.8,0-24.84,11.04-24.84,27.6c0,16.56,11.04,27.6,24.84,27.6
		C502.56,187.05,513.6,176.02,513.6,159.46 M536.6,159.46c0,28.52-20.24,48.76-47.84,48.76c-27.6,0-47.84-20.24-47.84-48.76
		c0-28.52,20.24-48.76,47.84-48.76C516.36,110.7,536.6,130.94,536.6,159.46"/>
	<path class="st1" d="M546.76,112.54h19.26l1.84,9.2h0.92c1.47-2.02,3.31-3.86,5.52-5.52c3.68-2.76,9.2-5.52,16.56-5.52
		c9.38,0,15.45,3.31,19.69,6.44c2.39,2.02,4.42,4.05,6.07,6.44h0.92c1.84-2.39,4.05-4.42,6.62-6.44c4.41-3.13,11.22-6.44,20.97-6.44
		c19.32,0,34.96,16.56,34.96,37.72v57.96h-23v-56.12c0-11.52-5.81-17.92-14.63-18.37c-10.18-0.52-18.49,8.18-18.49,18.37v56.12h-23
		v-56.12c0-11.52-5.81-17.92-14.63-18.37c-10.18-0.52-18.49,8.18-18.49,18.37v56.12h-23v-91.94
		C544.87,113.39,545.72,112.54,546.76,112.54"/>
	<path class="st1" d="M227.96,102.62V85.87h-21.09c-1.05,0-1.9,0.85-1.9,1.9v24.77h-14.72v22.08h14.72v49.66
		c0,13.98,8.27,22.07,23.9,22.07h20.23V186.1h-14.7c-3.56,0-6.44-2.89-6.44-6.44v-45.05h21.15v-22.08h-15.64h-5.51h-8.28l7.12-7.12
		C227.54,104.67,227.96,103.66,227.96,102.62"/>
	<path class="st1" d="M69.96,160.06c0-17.44-9.81-27.26-23.62-27.26s-23.62,9.81-23.62,27.26s9.81,27.26,23.62,27.26
		S69.96,177.5,69.96,160.06 M70.87,196.4h-0.91c-1.82,2.36-4,4.36-6.54,6c-4.36,2.91-11.27,5.82-20.72,5.82
		c-23.62,0-42.7-19.08-42.7-48.15s19.08-48.15,42.7-48.15c9.27,0,15.63,3.09,19.99,6c2.54,1.63,4.72,3.63,6.36,5.81h0.91V79.2h22.71
		v127.2H72.68L70.87,196.4z"/>
</g>
</svg>
